<svg width="221" height="27" viewBox="0 0 221 27" fill="none" xmlns="http://www.w3.org/2000/svg">
<path d="M208.684 26.5873C206.6 26.5873 204.587 26.3505 202.646 25.8769C200.704 25.4033 199.106 24.7876 197.851 24.0299L200.55 17.9206C201.734 18.6073 203.048 19.1638 204.493 19.59C205.961 19.9925 207.382 20.1938 208.755 20.1938C209.56 20.1938 210.188 20.1464 210.637 20.0517C211.111 19.9333 211.454 19.7794 211.668 19.59C211.881 19.3769 211.987 19.1282 211.987 18.8441C211.987 18.3942 211.739 18.039 211.241 17.7785C210.744 17.518 210.081 17.3049 209.252 17.1392C208.447 16.9497 207.559 16.7603 206.588 16.5709C205.617 16.3577 204.635 16.0854 203.64 15.7539C202.669 15.4224 201.77 14.9843 200.941 14.4397C200.136 13.8951 199.484 13.1847 198.987 12.3086C198.49 11.4087 198.241 10.2958 198.241 8.96976C198.241 7.4306 198.668 6.03352 199.52 4.77851C200.396 3.49982 201.687 2.4816 203.392 1.72386C205.12 0.966121 207.263 0.58725 209.821 0.58725C211.502 0.58725 213.159 0.764846 214.793 1.12004C216.427 1.47523 217.895 2.01985 219.198 2.75392L216.676 8.82769C215.444 8.21202 214.249 7.75027 213.088 7.44244C211.952 7.13461 210.839 6.98069 209.749 6.98069C208.944 6.98069 208.305 7.05173 207.831 7.19381C207.358 7.33588 207.015 7.52532 206.801 7.76211C206.612 7.99891 206.517 8.25938 206.517 8.54353C206.517 8.96976 206.766 9.31311 207.263 9.57359C207.76 9.81038 208.412 10.0117 209.217 10.1774C210.045 10.3432 210.945 10.5208 211.916 10.7102C212.911 10.8996 213.893 11.1601 214.864 11.4916C215.835 11.8231 216.723 12.2612 217.528 12.8058C218.357 13.3505 219.02 14.0608 219.517 14.937C220.015 15.8131 220.263 16.9024 220.263 18.2047C220.263 19.7202 219.825 21.1173 218.949 22.396C218.096 23.651 216.818 24.6692 215.113 25.4506C213.408 26.2084 211.265 26.5873 208.684 26.5873Z" fill="#1D1D1D"/>
<path d="M175.514 26.0189V1.15555H195.725V7.47795H183.755V19.6965H196.187V26.0189H175.514ZM183.187 16.4288V10.3905H194.268V16.4288H183.187Z" fill="#1D1D1D"/>
<path d="M157.673 26.0189V7.65555H150.392V1.15555H173.337V7.65555H166.056V26.0189H157.673Z" fill="#1D1D1D"/>
<path d="M135.584 26.5873C133.548 26.5873 131.665 26.2676 129.937 25.6282C128.232 24.9889 126.752 24.0891 125.497 22.9288C124.242 21.7448 123.259 20.3596 122.549 18.773C121.862 17.1865 121.519 15.4579 121.519 13.5873C121.519 11.6929 121.862 9.9643 122.549 8.40146C123.259 6.81494 124.242 5.44153 125.497 4.28124C126.752 3.09727 128.232 2.18561 129.937 1.54627C131.665 0.906922 133.536 0.58725 135.549 0.58725C137.585 0.58725 139.456 0.906922 141.161 1.54627C142.866 2.18561 144.346 3.09727 145.601 4.28124C146.856 5.44153 147.826 6.81494 148.513 8.40146C149.224 9.9643 149.579 11.6929 149.579 13.5873C149.579 15.4579 149.224 17.1865 148.513 18.773C147.826 20.3596 146.856 21.7448 145.601 22.9288C144.346 24.0891 142.866 24.9889 141.161 25.6282C139.456 26.2676 137.597 26.5873 135.584 26.5873ZM135.549 19.8031C136.33 19.8031 137.052 19.661 137.715 19.3769C138.402 19.0927 138.994 18.6902 139.491 18.1692C140.012 17.6246 140.415 16.9734 140.699 16.2157C140.983 15.4342 141.125 14.5581 141.125 13.5873C141.125 12.6164 140.983 11.7521 140.699 10.9944C140.415 10.2129 140.012 9.56175 139.491 9.0408C138.994 8.49617 138.402 8.08178 137.715 7.79763C137.052 7.51348 136.33 7.3714 135.549 7.3714C134.767 7.3714 134.033 7.51348 133.346 7.79763C132.683 8.08178 132.091 8.49617 131.571 9.0408C131.073 9.56175 130.683 10.2129 130.398 10.9944C130.114 11.7521 129.972 12.6164 129.972 13.5873C129.972 14.5581 130.114 15.4342 130.398 16.2157C130.683 16.9734 131.073 17.6246 131.571 18.1692C132.091 18.6902 132.683 19.0927 133.346 19.3769C134.033 19.661 134.767 19.8031 135.549 19.8031Z" fill="#1D1D1D"/>
<path d="M93.9661 26.0189V1.15555H100.857L113.502 16.2867H110.305V1.15555H118.474V26.0189H111.584L98.9387 10.8878H102.135V26.0189H93.9661Z" fill="#1D1D1D"/>
<path d="M81.5483 26.0189V1.15555H89.9309V26.0189H81.5483Z" fill="#931939"/>
<path d="M63.7073 26.0189V7.65555H56.4258V1.15555H79.3712V7.65555H72.0898V26.0189H63.7073Z" fill="#931939"/>
<path d="M41.6181 26.5873C39.5816 26.5873 37.6991 26.2676 35.9705 25.6282C34.2656 24.9889 32.7856 24.0891 31.5306 22.9288C30.2756 21.7448 29.2929 20.3596 28.5825 18.773C27.8958 17.1865 27.5525 15.4579 27.5525 13.5873C27.5525 11.6929 27.8958 9.9643 28.5825 8.40146C29.2929 6.81494 30.2756 5.44153 31.5306 4.28124C32.7856 3.09727 34.2656 2.18561 35.9705 1.54627C37.6991 0.906922 39.5698 0.58725 41.5825 0.58725C43.619 0.58725 45.4896 0.906922 47.1946 1.54627C48.8995 2.18561 50.3794 3.09727 51.6345 4.28124C52.8895 5.44153 53.8603 6.81494 54.547 8.40146C55.2574 9.9643 55.6126 11.6929 55.6126 13.5873C55.6126 15.4579 55.2574 17.1865 54.547 18.773C53.8603 20.3596 52.8895 21.7448 51.6345 22.9288C50.3794 24.0891 48.8995 24.9889 47.1946 25.6282C45.4896 26.2676 43.6308 26.5873 41.6181 26.5873ZM41.5825 19.8031C42.364 19.8031 43.0862 19.661 43.7492 19.3769C44.4359 19.0927 45.0279 18.6902 45.5252 18.1692C46.0461 17.6246 46.4487 16.9734 46.7328 16.2157C47.017 15.4342 47.159 14.5581 47.159 13.5873C47.159 12.6164 47.017 11.7521 46.7328 10.9944C46.4487 10.2129 46.0461 9.56175 45.5252 9.0408C45.0279 8.49617 44.4359 8.08178 43.7492 7.79763C43.0862 7.51348 42.364 7.3714 41.5825 7.3714C40.8011 7.3714 40.0671 7.51348 39.3804 7.79763C38.7173 8.08178 38.1253 8.49617 37.6044 9.0408C37.1071 9.56175 36.7164 10.2129 36.4323 10.9944C36.1481 11.7521 36.006 12.6164 36.006 13.5873C36.006 14.5581 36.1481 15.4342 36.4323 16.2157C36.7164 16.9734 37.1071 17.6246 37.6044 18.1692C38.1253 18.6902 38.7173 19.0927 39.3804 19.3769C40.0671 19.661 40.8011 19.8031 41.5825 19.8031Z" fill="#931939"/>
<path d="M0 26.0189V1.15555H6.89071L19.5355 16.2867H16.3388V1.15555H24.5082V26.0189H17.6175L4.97268 10.8878H8.1694V26.0189H0Z" fill="#931939"/>
</svg>
