<svg width="182" height="21" viewBox="0 0 182 21" fill="none" xmlns="http://www.w3.org/2000/svg">
<g clip-path="url(#clip0_1_5)">
<path d="M11.2668 21C9.63437 21 8.13173 20.7414 6.75583 20.2241C5.37992 19.7069 4.19109 18.9767 3.18631 18.0304C2.18154 17.0842 1.39703 15.9706 0.838821 14.6897C0.280613 13.4087 0 12.0122 0 10.5C0 8.98783 0.280613 7.56998 0.838821 6.29818C1.39703 5.02637 2.18154 3.91582 3.18631 2.96957C4.19109 2.02333 5.37992 1.29006 6.75583 0.775862C8.13173 0.258621 9.62532 0 11.2366 0C12.8478 0 14.3656 0.258621 15.7324 0.775862C17.0993 1.2931 18.2821 2.02333 19.2899 2.96957C20.2946 3.91582 21.0761 5.02637 21.6374 6.29818C22.1956 7.56998 22.4762 8.97262 22.4762 10.5C22.4762 12.0274 22.1956 13.4087 21.6374 14.6897C21.0791 15.9706 20.2946 17.0842 19.2899 18.0304C18.2851 18.9767 17.0993 19.7099 15.7324 20.2241C14.3656 20.7383 12.878 21 11.2668 21ZM11.2396 15.5203C11.8642 15.5203 12.4496 15.4047 12.9897 15.1765C13.5298 14.9483 14.0035 14.6166 14.4108 14.1876C14.8182 13.7586 15.135 13.2323 15.3643 12.6085C15.5906 11.9878 15.7053 11.285 15.7053 10.5C15.7053 9.71501 15.5906 9.01217 15.3643 8.39148C15.138 7.77079 14.8182 7.24442 14.4108 6.81237C14.0035 6.38337 13.5298 6.05172 12.9897 5.82353C12.4496 5.59534 11.8672 5.47972 11.2396 5.47972C10.612 5.47972 10.0296 5.59534 9.48954 5.82353C8.94944 6.05172 8.47571 6.38337 8.06837 6.81237C7.66103 7.24138 7.34421 7.76775 7.11489 8.39148C6.88859 9.01217 6.77393 9.71501 6.77393 10.5C6.77393 11.285 6.88859 11.9878 7.11489 12.6085C7.34119 13.2292 7.66103 13.7556 8.06837 14.1876C8.47571 14.6166 8.94944 14.9483 9.48954 15.1765C10.0296 15.4047 10.612 15.5203 11.2396 15.5203Z" fill="#931939"/>
<path d="M29.2471 20.5406L22.8745 0.459442H29.7872L34.9378 17.4158H31.4678L36.9292 0.459442H43.1027L48.196 17.4158H44.8679L50.2448 0.459442H56.6174L50.2448 20.5406H43.0454L38.8905 6.65417H40.8246L36.4434 20.5406H29.2441H29.2471Z" fill="#931939"/>
<path d="M68.0561 21C65.0026 21 62.6219 20.1694 60.9141 18.5051C59.2063 16.8408 58.3524 14.5071 58.3524 11.5041V0.459442H65.0659V11.3033C65.0659 12.8337 65.3405 13.9199 65.8897 14.5588C66.4388 15.2008 67.1781 15.5203 68.1074 15.5203C69.0368 15.5203 69.8001 15.2008 70.3403 14.5588C70.8804 13.9168 71.1519 12.8337 71.1519 11.3033V0.459442H77.7539V11.5041C77.7539 14.5071 76.9 16.8408 75.1921 18.5051C73.4843 20.1694 71.1036 21 68.0501 21H68.0561Z" fill="#931939"/>
<path d="M80.8286 20.5406V0.459442H86.3473L96.4765 12.6816H93.9148V0.459442H100.459V20.5406H94.9407L84.8114 8.31847H87.3732V20.5406H80.8286Z" fill="#231F20"/>
<path d="M114.173 21C112.541 21 111.038 20.7414 109.662 20.2241C108.286 19.7069 107.098 18.9767 106.093 18.0304C105.088 17.0842 104.303 15.9706 103.745 14.6897C103.187 13.4087 102.906 12.0122 102.906 10.5C102.906 8.98783 103.187 7.56998 103.745 6.29818C104.303 5.02637 105.088 3.91582 106.093 2.96957C107.098 2.02333 108.289 1.29006 109.662 0.775862C111.038 0.258621 112.532 0 114.143 0C115.754 0 117.272 0.258621 118.639 0.775862C120.006 1.2931 121.189 2.02333 122.196 2.96957C123.204 3.91582 123.983 5.02637 124.544 6.29818C125.102 7.56998 125.383 8.97262 125.383 10.5C125.383 12.0274 125.102 13.4087 124.544 14.6897C123.986 15.9706 123.201 17.0842 122.196 18.0304C121.192 18.9767 120.006 19.7099 118.639 20.2241C117.272 20.7383 115.784 21 114.173 21ZM114.146 15.5203C114.774 15.5203 115.356 15.4047 115.896 15.1765C116.436 14.9483 116.91 14.6166 117.317 14.1876C117.725 13.7586 118.041 13.2323 118.271 12.6085C118.497 11.9878 118.612 11.285 118.612 10.5C118.612 9.71501 118.497 9.01217 118.271 8.39148C118.044 7.77079 117.725 7.24442 117.317 6.81237C116.91 6.38337 116.436 6.05172 115.896 5.82353C115.356 5.59534 114.774 5.47972 114.146 5.47972C113.518 5.47972 112.936 5.59534 112.396 5.82353C111.856 6.05172 111.382 6.38337 110.975 6.81237C110.567 7.24138 110.251 7.76775 110.021 8.39148C109.795 9.01217 109.68 9.71501 109.68 10.5C109.68 11.285 109.795 11.9878 110.021 12.6085C110.248 13.2292 110.567 13.7556 110.975 14.1876C111.382 14.6166 111.856 14.9483 112.396 15.1765C112.936 15.4047 113.518 15.5203 114.146 15.5203Z" fill="#231F20"/>
<path d="M131.87 20.5406V5.70792H126.037V0.459442H144.416V5.71096H138.583V20.5436H131.87V20.5406Z" fill="#231F20"/>
<path d="M146.154 20.5406V0.459442H162.342V5.56492H152.753V15.4351H162.71V20.5406H146.151H146.154ZM152.297 12.7941V7.91685H161.174V12.7941H152.297Z" fill="#231F20"/>
<path d="M172.725 21C171.056 21 169.442 20.8083 167.888 20.4249C166.331 20.0416 165.052 19.5456 164.047 18.9341L166.21 13.999C167.158 14.5527 168.217 15 169.381 15.3316C170.549 15.6663 171.681 15.8337 172.782 15.8337C173.428 15.8337 173.935 15.7911 174.303 15.7059C174.674 15.6207 174.942 15.4959 175.114 15.3316C175.286 15.1704 175.371 14.9726 175.371 14.7444C175.371 14.3824 175.172 14.0933 174.773 13.8834C174.375 13.6734 173.85 13.497 173.195 13.354C172.541 13.211 171.826 13.0588 171.047 12.8945C170.269 12.7333 169.487 12.5172 168.7 12.2495C167.912 11.9817 167.191 11.6288 166.536 11.1876C165.881 10.7465 165.356 10.1684 164.958 9.45335C164.56 8.73834 164.361 7.84381 164.361 6.76978C164.361 5.52536 164.708 4.39351 165.399 3.3712C166.09 2.34888 167.125 1.53043 168.5 0.918864C169.876 0.307302 171.587 0 173.636 0C174.982 0 176.309 0.143002 177.619 0.429006C178.928 0.71501 180.102 1.15619 181.146 1.74949L179.124 6.65416C178.138 6.15822 177.184 5.78398 176.264 5.53448C175.344 5.28499 174.448 5.16024 173.576 5.16024C172.93 5.16024 172.42 5.21805 172.04 5.33367C171.66 5.44929 171.391 5.60142 171.228 5.7931C171.068 5.98479 170.987 6.19473 170.987 6.42292C170.987 6.76674 171.186 7.04057 171.584 7.24138C171.982 7.44219 172.507 7.60953 173.162 7.74341C173.817 7.87728 174.538 8.02028 175.326 8.17241C176.113 8.32454 176.895 8.53448 177.673 8.80223C178.452 9.06998 179.167 9.42292 179.821 9.8641C180.476 10.3053 181.001 10.8773 181.4 11.5862C181.798 12.2951 181.997 13.1744 181.997 14.2241C181.997 15.4473 181.65 16.573 180.959 17.5953C180.268 18.6176 179.239 19.4422 177.872 20.0629C176.505 20.6836 174.789 20.9939 172.722 20.9939L172.725 21Z" fill="#231F20"/>
</g>
<defs>
<clipPath id="clip0_1_5">
<rect width="182" height="21" fill="white"/>
</clipPath>
</defs>
</svg>
