<svg width="443" height="74" viewBox="0 0 443 74" fill="none" xmlns="http://www.w3.org/2000/svg">
<path d="M0.472 72V4.8H19.096L53.272 45.696H44.632V4.8H66.712V72H48.088L13.912 31.104H22.552V72H0.472ZM112.956 73.536C107.452 73.536 102.364 72.672 97.6923 70.944C93.0843 69.216 89.0843 66.784 85.6923 63.648C82.3003 60.448 79.6443 56.704 77.7243 52.416C75.8683 48.128 74.9403 43.456 74.9403 38.4C74.9403 33.28 75.8683 28.608 77.7243 24.384C79.6443 20.096 82.3003 16.384 85.6923 13.248C89.0843 10.048 93.0843 7.584 97.6923 5.856C102.364 4.128 107.42 3.264 112.86 3.264C118.364 3.264 123.42 4.128 128.028 5.856C132.636 7.584 136.636 10.048 140.028 13.248C143.42 16.384 146.044 20.096 147.9 24.384C149.82 28.608 150.78 33.28 150.78 38.4C150.78 43.456 149.82 48.128 147.9 52.416C146.044 56.704 143.42 60.448 140.028 63.648C136.636 66.784 132.636 69.216 128.028 70.944C123.42 72.672 118.396 73.536 112.956 73.536ZM112.86 55.2C114.972 55.2 116.924 54.816 118.716 54.048C120.572 53.28 122.172 52.192 123.516 50.784C124.924 49.312 126.012 47.552 126.78 45.504C127.548 43.392 127.932 41.024 127.932 38.4C127.932 35.776 127.548 33.44 126.78 31.392C126.012 29.28 124.924 27.52 123.516 26.112C122.172 24.64 120.572 23.52 118.716 22.752C116.924 21.984 114.972 21.6 112.86 21.6C110.748 21.6 108.764 21.984 106.908 22.752C105.116 23.52 103.516 24.64 102.108 26.112C100.764 27.52 99.7083 29.28 98.9403 31.392C98.1723 33.44 97.7883 35.776 97.7883 38.4C97.7883 41.024 98.1723 43.392 98.9403 45.504C99.7083 47.552 100.764 49.312 102.108 50.784C103.516 52.192 105.116 53.28 106.908 54.048C108.764 54.816 110.748 55.2 112.86 55.2ZM172.658 72V22.368H152.978V4.8H214.994V22.368H195.314V72H172.658ZM220.878 72V4.8H275.502V21.888H243.15V54.912H276.75V72H220.878ZM241.614 46.08V29.76H271.566V46.08H241.614Z" fill="#931939"/>
<path d="M282.445 52.416V36.096H311.245V52.416H282.445ZM350.261 72.96C343.861 72.96 338.261 71.776 333.461 69.408C328.725 67.04 325.045 63.808 322.421 59.712C319.797 55.552 318.485 50.88 318.485 45.696C318.485 40.384 319.765 35.68 322.325 31.584C324.949 27.488 328.501 24.288 332.981 21.984C337.525 19.68 342.613 18.528 348.245 18.528C353.429 18.528 358.197 19.552 362.549 21.6C366.965 23.648 370.485 26.688 373.109 30.72C375.797 34.752 377.141 39.744 377.141 45.696C377.141 46.464 377.109 47.328 377.045 48.288C376.981 49.184 376.917 50.016 376.853 50.784H336.437V40.32H365.333L357.173 43.104C357.173 41.056 356.789 39.328 356.021 37.92C355.317 36.448 354.325 35.328 353.045 34.56C351.765 33.728 350.229 33.312 348.437 33.312C346.645 33.312 345.077 33.728 343.733 34.56C342.453 35.328 341.461 36.448 340.757 37.92C340.053 39.328 339.701 41.056 339.701 43.104V46.368C339.701 48.608 340.149 50.528 341.045 52.128C341.941 53.728 343.221 54.944 344.885 55.776C346.549 56.544 348.565 56.928 350.933 56.928C353.365 56.928 355.349 56.608 356.885 55.968C358.485 55.328 360.149 54.368 361.877 53.088L373.205 64.512C370.645 67.264 367.477 69.376 363.701 70.848C359.989 72.256 355.509 72.96 350.261 72.96ZM407.028 72.96C402.484 72.96 398.26 71.872 394.356 69.696C390.516 67.456 387.444 64.32 385.14 60.288C382.836 56.192 381.684 51.328 381.684 45.696C381.684 40.064 382.836 35.232 385.14 31.2C387.444 27.104 390.516 23.968 394.356 21.792C398.26 19.616 402.484 18.528 407.028 18.528C411.636 18.528 415.412 19.52 418.356 21.504C421.3 23.424 423.476 26.4 424.884 30.432C426.292 34.4 426.996 39.488 426.996 45.696C426.996 51.968 426.324 57.12 424.98 61.152C423.7 65.184 421.588 68.16 418.644 70.08C415.764 72 411.892 72.96 407.028 72.96ZM412.212 56.064C413.812 56.064 415.252 55.68 416.532 54.912C417.812 54.144 418.836 52.992 419.604 51.456C420.372 49.856 420.756 47.936 420.756 45.696C420.756 43.392 420.372 41.504 419.604 40.032C418.836 38.496 417.812 37.344 416.532 36.576C415.252 35.808 413.812 35.424 412.212 35.424C410.612 35.424 409.172 35.808 407.892 36.576C406.612 37.344 405.588 38.496 404.82 40.032C404.052 41.504 403.668 43.392 403.668 45.696C403.668 47.936 404.052 49.856 404.82 51.456C405.588 52.992 406.612 54.144 407.892 54.912C409.172 55.68 410.612 56.064 412.212 56.064ZM421.428 72V64.896L421.332 45.696L420.372 26.496V0.767996H442.068V72H421.428Z" fill="#1D1D1D"/>
</svg>
